<?xml version="1.0" encoding="UTF-8"?>
<svg version="1.1" viewBox="0 0 88 88" xmlns="http://www.w3.org/2000/svg" xmlns:xlink="http://www.w3.org/1999/xlink">
<defs>
<path id="b" d="m88.557 49c0 21.847-17.71 39.557-39.557 39.557s-39.557-17.71-39.557-39.557 17.71-39.557 39.557-39.557 39.557 17.71 39.557 39.557zm-44.133 20.945l29.349-29.349c0.99659-0.99659 0.99659-2.6125 0-3.6091l-3.6091-3.6091c-0.99659-0.99675-2.6125-0.99675-3.6093 0l-23.935 23.935-11.175-11.175c-0.99659-0.99659-2.6125-0.99659-3.6093 0l-3.6091 3.6091c-0.99659 0.99659-0.99659 2.6125 0 3.6091l16.589 16.589c0.99675 0.99675 2.6125 0.99675 3.6093 1.595e-4z"/>
<rect id="a" width="98" height="98"/>
<filter id="e" x="-1.5%" y="-1.5%" width="103.1%" height="103.1%">
<feMorphology in="SourceAlpha" operator="dilate" radius="0.5" result="shadowSpreadOuter1"/>
<feOffset dx="0" dy="0" in="shadowSpreadOuter1" result="shadowOffsetOuter1"/>
<feColorMatrix in="shadowOffsetOuter1" values="0 0 0 0 0.062745098   0 0 0 0 0.0862745098   0 0 0 0 0.101960784  0 0 0 0.6 0"/>
</filter>
<filter id="d" x="-2.6%" y="-2.6%" width="105.1%" height="105.1%">
<feGaussianBlur in="SourceAlpha" result="shadowBlurInner1" stdDeviation="1"/>
<feOffset dx="0" dy="1" in="shadowBlurInner1" result="shadowOffsetInner1"/>
<feComposite in="shadowOffsetInner1" in2="SourceAlpha" k2="-1" k3="1" operator="arithmetic" result="shadowInnerInner1"/>
<feColorMatrix in="shadowInnerInner1" values="0 0 0 0 0.062745098   0 0 0 0 0.0862745098   0 0 0 0 0.101960784  0 0 0 0.2 0"/>
</filter>
</defs>
<g fill="none" fill-rule="evenodd">
<g transform="translate(-10 -56)">
<g transform="translate(5 51)">
<circle cx="49" cy="49" r="44" fill="#fff"/>
<mask id="c" fill="white">
<use xlink:href="#b"/>
</mask>
<g fill-rule="evenodd" mask="url(#c)">
<use fill="black" filter="url(#e)" xlink:href="#a"/>
<use fill="#202B33" fill-rule="evenodd" xlink:href="#a"/>
<use fill="black" filter="url(#d)" xlink:href="#a"/>
</g>
</g>
</g>
</g>
</svg>
